<mxfile host="app.diagrams.net" modified="2024-07-01T19:02:09.836Z" agent="Mozilla/5.0 (Windows NT 10.0; Win64; x64) AppleWebKit/537.36 (KHTML, like Gecko) Chrome/123.0.0.0 Safari/537.36 OPR/109.0.0.0 (Edition std-1)" etag="4UdKc2PgsSrYJMbJv3Nw" version="24.6.4" type="device">
  <diagram name="Página-1" id="XjJRhDURnoNUuG4hudMk">
    <mxGraphModel dx="1741" dy="996" grid="1" gridSize="10" guides="1" tooltips="1" connect="1" arrows="1" fold="1" page="1" pageScale="1" pageWidth="827" pageHeight="1169" math="0" shadow="0">
      <root>
        <mxCell id="0" />
        <mxCell id="1" parent="0" />
        <mxCell id="iYdMo4s5gZDRqfwlkQo8-14" value="&lt;h4 style=&quot;margin: 0 0 0 40px; border: none; padding: 0px;&quot;&gt;Entorno de pruebas&lt;/h4&gt;" style="html=1;dropTarget=0;whiteSpace=wrap;align=left;" vertex="1" parent="1">
          <mxGeometry x="80" width="470" height="720" as="geometry" />
        </mxCell>
        <mxCell id="iYdMo4s5gZDRqfwlkQo8-15" value="" style="shape=module;jettyWidth=8;jettyHeight=4;" vertex="1" parent="iYdMo4s5gZDRqfwlkQo8-14">
          <mxGeometry x="1" width="20" height="20" relative="1" as="geometry">
            <mxPoint x="-27" y="7" as="offset" />
          </mxGeometry>
        </mxCell>
        <mxCell id="iYdMo4s5gZDRqfwlkQo8-36" style="edgeStyle=orthogonalEdgeStyle;rounded=0;orthogonalLoop=1;jettySize=auto;html=1;exitX=0.5;exitY=1;exitDx=0;exitDy=0;entryX=0.5;entryY=0;entryDx=0;entryDy=0;endArrow=none;endFill=0;" edge="1" parent="1" source="iYdMo4s5gZDRqfwlkQo8-1" target="iYdMo4s5gZDRqfwlkQo8-3">
          <mxGeometry relative="1" as="geometry" />
        </mxCell>
        <mxCell id="iYdMo4s5gZDRqfwlkQo8-1" value="Casos de prueba" style="html=1;dropTarget=0;whiteSpace=wrap;" vertex="1" parent="1">
          <mxGeometry x="270" y="41" width="234" height="90" as="geometry" />
        </mxCell>
        <mxCell id="iYdMo4s5gZDRqfwlkQo8-2" value="" style="shape=module;jettyWidth=8;jettyHeight=4;" vertex="1" parent="iYdMo4s5gZDRqfwlkQo8-1">
          <mxGeometry x="1" width="20" height="20" relative="1" as="geometry">
            <mxPoint x="-27" y="7" as="offset" />
          </mxGeometry>
        </mxCell>
        <mxCell id="iYdMo4s5gZDRqfwlkQo8-17" style="edgeStyle=orthogonalEdgeStyle;rounded=0;orthogonalLoop=1;jettySize=auto;html=1;curved=0;endArrow=none;endFill=0;" edge="1" parent="1" source="iYdMo4s5gZDRqfwlkQo8-3" target="iYdMo4s5gZDRqfwlkQo8-8">
          <mxGeometry relative="1" as="geometry" />
        </mxCell>
        <mxCell id="iYdMo4s5gZDRqfwlkQo8-3" value="Maestro de simulaciones" style="html=1;dropTarget=0;whiteSpace=wrap;" vertex="1" parent="1">
          <mxGeometry x="270" y="170" width="234" height="90" as="geometry" />
        </mxCell>
        <mxCell id="iYdMo4s5gZDRqfwlkQo8-4" value="" style="shape=module;jettyWidth=8;jettyHeight=4;" vertex="1" parent="iYdMo4s5gZDRqfwlkQo8-3">
          <mxGeometry x="1" width="20" height="20" relative="1" as="geometry">
            <mxPoint x="-27" y="7" as="offset" />
          </mxGeometry>
        </mxCell>
        <mxCell id="iYdMo4s5gZDRqfwlkQo8-8" value="Mapa de señales" style="html=1;dropTarget=0;whiteSpace=wrap;" vertex="1" parent="1">
          <mxGeometry x="270" y="288" width="234" height="90" as="geometry" />
        </mxCell>
        <mxCell id="iYdMo4s5gZDRqfwlkQo8-9" value="" style="shape=module;jettyWidth=8;jettyHeight=4;" vertex="1" parent="iYdMo4s5gZDRqfwlkQo8-8">
          <mxGeometry x="1" width="20" height="20" relative="1" as="geometry">
            <mxPoint x="-27" y="7" as="offset" />
          </mxGeometry>
        </mxCell>
        <mxCell id="iYdMo4s5gZDRqfwlkQo8-10" value="Simuladores" style="html=1;dropTarget=0;whiteSpace=wrap;" vertex="1" parent="1">
          <mxGeometry x="270" y="599" width="234" height="90" as="geometry" />
        </mxCell>
        <mxCell id="iYdMo4s5gZDRqfwlkQo8-11" value="" style="shape=module;jettyWidth=8;jettyHeight=4;" vertex="1" parent="iYdMo4s5gZDRqfwlkQo8-10">
          <mxGeometry x="1" width="20" height="20" relative="1" as="geometry">
            <mxPoint x="-27" y="7" as="offset" />
          </mxGeometry>
        </mxCell>
        <mxCell id="iYdMo4s5gZDRqfwlkQo8-25" style="edgeStyle=orthogonalEdgeStyle;rounded=0;orthogonalLoop=1;jettySize=auto;html=1;endArrow=none;endFill=0;" edge="1" parent="1" source="iYdMo4s5gZDRqfwlkQo8-12" target="iYdMo4s5gZDRqfwlkQo8-10">
          <mxGeometry relative="1" as="geometry" />
        </mxCell>
        <mxCell id="iYdMo4s5gZDRqfwlkQo8-12" value="Mapa de señales" style="html=1;dropTarget=0;whiteSpace=wrap;" vertex="1" parent="1">
          <mxGeometry x="270" y="481" width="234" height="90" as="geometry" />
        </mxCell>
        <mxCell id="iYdMo4s5gZDRqfwlkQo8-13" value="" style="shape=module;jettyWidth=8;jettyHeight=4;" vertex="1" parent="iYdMo4s5gZDRqfwlkQo8-12">
          <mxGeometry x="1" width="20" height="20" relative="1" as="geometry">
            <mxPoint x="-27" y="7" as="offset" />
          </mxGeometry>
        </mxCell>
        <mxCell id="iYdMo4s5gZDRqfwlkQo8-28" value="" style="ellipse;whiteSpace=wrap;html=1;align=center;aspect=fixed;fillColor=none;strokeColor=none;resizable=0;perimeter=centerPerimeter;rotatable=0;allowArrows=0;points=[];outlineConnect=1;" vertex="1" parent="1">
          <mxGeometry x="285" y="188" width="10" height="10" as="geometry" />
        </mxCell>
        <mxCell id="iYdMo4s5gZDRqfwlkQo8-31" value="ISNAV" style="html=1;dropTarget=0;whiteSpace=wrap;" vertex="1" parent="1">
          <mxGeometry x="640" y="440" width="180" height="280" as="geometry" />
        </mxCell>
        <mxCell id="iYdMo4s5gZDRqfwlkQo8-32" value="" style="shape=module;jettyWidth=8;jettyHeight=4;" vertex="1" parent="iYdMo4s5gZDRqfwlkQo8-31">
          <mxGeometry x="1" width="20" height="20" relative="1" as="geometry">
            <mxPoint x="-27" y="7" as="offset" />
          </mxGeometry>
        </mxCell>
        <mxCell id="iYdMo4s5gZDRqfwlkQo8-53" style="edgeStyle=orthogonalEdgeStyle;rounded=0;orthogonalLoop=1;jettySize=auto;html=1;entryX=0;entryY=0.5;entryDx=0;entryDy=0;endArrow=none;endFill=0;" edge="1" parent="1" source="iYdMo4s5gZDRqfwlkQo8-33" target="iYdMo4s5gZDRqfwlkQo8-50">
          <mxGeometry relative="1" as="geometry" />
        </mxCell>
        <mxCell id="iYdMo4s5gZDRqfwlkQo8-33" value="" style="shape=providedRequiredInterface;html=1;verticalLabelPosition=bottom;sketch=0;" vertex="1" parent="1">
          <mxGeometry x="580" y="635" width="20" height="20" as="geometry" />
        </mxCell>
        <mxCell id="iYdMo4s5gZDRqfwlkQo8-58" style="edgeStyle=orthogonalEdgeStyle;rounded=0;orthogonalLoop=1;jettySize=auto;html=1;endArrow=none;endFill=0;" edge="1" parent="1" source="iYdMo4s5gZDRqfwlkQo8-37" target="iYdMo4s5gZDRqfwlkQo8-39">
          <mxGeometry relative="1" as="geometry" />
        </mxCell>
        <mxCell id="iYdMo4s5gZDRqfwlkQo8-37" value="" style="shape=providedRequiredInterface;html=1;verticalLabelPosition=bottom;sketch=0;rotation=90;" vertex="1" parent="1">
          <mxGeometry x="330" y="420" width="20" height="20" as="geometry" />
        </mxCell>
        <mxCell id="iYdMo4s5gZDRqfwlkQo8-38" value="" style="rounded=0;whiteSpace=wrap;html=1;" vertex="1" parent="1">
          <mxGeometry x="490" y="635" width="20" height="20" as="geometry" />
        </mxCell>
        <mxCell id="iYdMo4s5gZDRqfwlkQo8-39" value="" style="rounded=0;whiteSpace=wrap;html=1;" vertex="1" parent="1">
          <mxGeometry x="330" y="470" width="20" height="20" as="geometry" />
        </mxCell>
        <mxCell id="iYdMo4s5gZDRqfwlkQo8-40" value="" style="rounded=0;whiteSpace=wrap;html=1;" vertex="1" parent="1">
          <mxGeometry x="330" y="370" width="20" height="20" as="geometry" />
        </mxCell>
        <mxCell id="iYdMo4s5gZDRqfwlkQo8-46" value="" style="shape=providedRequiredInterface;html=1;verticalLabelPosition=bottom;sketch=0;rotation=-90;" vertex="1" parent="1">
          <mxGeometry x="420" y="420" width="20" height="20" as="geometry" />
        </mxCell>
        <mxCell id="iYdMo4s5gZDRqfwlkQo8-60" style="edgeStyle=orthogonalEdgeStyle;rounded=0;orthogonalLoop=1;jettySize=auto;html=1;endArrow=none;endFill=0;" edge="1" parent="1" source="iYdMo4s5gZDRqfwlkQo8-47" target="iYdMo4s5gZDRqfwlkQo8-46">
          <mxGeometry relative="1" as="geometry" />
        </mxCell>
        <mxCell id="iYdMo4s5gZDRqfwlkQo8-47" value="" style="rounded=0;whiteSpace=wrap;html=1;" vertex="1" parent="1">
          <mxGeometry x="420" y="470" width="20" height="20" as="geometry" />
        </mxCell>
        <mxCell id="iYdMo4s5gZDRqfwlkQo8-48" value="" style="rounded=0;whiteSpace=wrap;html=1;" vertex="1" parent="1">
          <mxGeometry x="420" y="370" width="20" height="20" as="geometry" />
        </mxCell>
        <mxCell id="iYdMo4s5gZDRqfwlkQo8-50" value="" style="rounded=0;whiteSpace=wrap;html=1;" vertex="1" parent="1">
          <mxGeometry x="630" y="635" width="20" height="20" as="geometry" />
        </mxCell>
        <mxCell id="iYdMo4s5gZDRqfwlkQo8-52" style="edgeStyle=orthogonalEdgeStyle;rounded=0;orthogonalLoop=1;jettySize=auto;html=1;entryX=0;entryY=0.5;entryDx=0;entryDy=0;entryPerimeter=0;endArrow=none;endFill=0;" edge="1" parent="1" source="iYdMo4s5gZDRqfwlkQo8-38" target="iYdMo4s5gZDRqfwlkQo8-33">
          <mxGeometry relative="1" as="geometry" />
        </mxCell>
        <mxCell id="iYdMo4s5gZDRqfwlkQo8-57" style="edgeStyle=orthogonalEdgeStyle;rounded=0;orthogonalLoop=1;jettySize=auto;html=1;entryX=0;entryY=0.5;entryDx=0;entryDy=0;entryPerimeter=0;endArrow=none;endFill=0;" edge="1" parent="1" source="iYdMo4s5gZDRqfwlkQo8-40" target="iYdMo4s5gZDRqfwlkQo8-37">
          <mxGeometry relative="1" as="geometry" />
        </mxCell>
        <mxCell id="iYdMo4s5gZDRqfwlkQo8-59" style="edgeStyle=orthogonalEdgeStyle;rounded=0;orthogonalLoop=1;jettySize=auto;html=1;entryX=1;entryY=0.5;entryDx=0;entryDy=0;entryPerimeter=0;endArrow=none;endFill=0;" edge="1" parent="1" source="iYdMo4s5gZDRqfwlkQo8-48" target="iYdMo4s5gZDRqfwlkQo8-46">
          <mxGeometry relative="1" as="geometry" />
        </mxCell>
      </root>
    </mxGraphModel>
  </diagram>
</mxfile>
